<svg width="220" height="220" viewBox="0 0 220 220" fill="none" xmlns="http://www.w3.org/2000/svg">
<rect width="220" height="220" fill="#ffffff0"/>
<rect width="220" height="220" rx="110" fill="#4C6763"/>
<path d="M191.361 95.3801C194.081 94.9006 196.711 96.7206 196.81 99.4803C196.919 102.529 196.642 105.587 195.979 108.578C194.954 113.202 193.028 117.578 190.312 121.457C187.596 125.336 184.142 128.642 180.148 131.186C176.155 133.73 171.699 135.463 167.035 136.285C162.372 137.108 157.592 137.003 152.969 135.979C148.346 134.954 143.97 133.028 140.091 130.312C136.212 127.596 132.905 124.142 130.361 120.148C128.715 117.564 127.408 114.786 126.468 111.883C125.617 109.256 127.466 106.647 130.186 106.167L160.774 100.774L191.361 95.3801Z" fill="white"/>
<path d="M90.3614 106.167C93.0809 106.647 94.93 109.256 94.0792 111.883C93.1392 114.786 91.8325 117.564 90.186 120.148C87.6417 124.142 84.3356 127.596 80.4566 130.312C76.5776 133.028 72.2015 134.954 67.5784 135.979C62.9552 137.003 58.1754 137.108 53.5119 136.285C48.8484 135.463 44.3926 133.73 40.3987 131.186C36.4049 128.642 32.9514 125.336 30.2352 121.457C27.5191 117.578 25.5936 113.201 24.5687 108.578C23.9054 105.587 23.6277 102.529 23.7371 99.4803C23.8361 96.7206 26.4663 94.9006 29.1858 95.3801L59.7736 100.774L90.3614 106.167Z" fill="white"/>
</svg>
