<svg width="174" height="42" viewBox="0 0 174 42" fill="none" xmlns="http://www.w3.org/2000/svg">
<rect width="174" height="42" fill="#ffffff00"/>
<path d="M168.361 0.380117C171.081 -0.099399 173.711 1.72064 173.81 4.48029C173.919 7.52924 173.642 10.5866 172.979 13.5783C171.954 18.2015 170.028 22.5775 167.312 26.4566C164.596 30.3356 161.142 33.6417 157.148 36.186C153.155 38.7304 148.699 40.4632 144.035 41.2854C139.372 42.1077 134.592 42.0035 129.969 40.9785C125.346 39.9536 120.97 38.0281 117.091 35.312C113.212 32.5958 109.905 29.1423 107.361 25.1484C105.715 22.564 104.408 19.786 103.468 16.8835C102.617 14.2564 104.466 11.6465 107.186 11.167L137.774 5.77358L168.361 0.380117Z" fill="white"/>
<path d="M67.3614 11.167C70.0808 11.6465 71.9299 14.2564 71.0791 16.8835C70.1391 19.786 68.8325 22.564 67.186 25.1484C64.6416 29.1423 61.3356 32.5958 57.4565 35.3119C53.5775 38.0281 49.2015 39.9536 44.5783 40.9785C39.9551 42.0034 35.1753 42.1077 30.5118 41.2854C25.8484 40.4631 21.3925 38.7304 17.3987 36.186C13.4049 33.6417 9.9513 30.3356 7.23517 26.4566C4.51904 22.5775 2.59354 18.2015 1.56861 13.5783C0.905351 10.5866 0.627627 7.52924 0.737046 4.48028C0.836082 1.72064 3.46624 -0.0994077 6.18572 0.380109L36.7735 5.77357L67.3614 11.167Z" fill="white"/>
</svg>
