<svg width="975" height="864" viewBox="0 0 975 864" fill="none" xmlns="http://www.w3.org/2000/svg">
<path d="M0 52H975V864H0V52Z" fill="white"/>
<path d="M0 20C0 8.9543 8.95431 0 20 0H975V52H0V20Z" fill="#233831"/>
<rect x="20" y="19" width="32" height="15" rx="7.5" fill="#24453A"/>
<rect x="191" y="19" width="32" height="15" rx="7.5" fill="#24453A"/>
<rect x="479" y="19" width="56" height="15" rx="7.5" fill="#24453A"/>
<rect x="911" y="19" width="45" height="15" rx="7.5" fill="#24453A"/>
<rect x="865" y="19" width="30" height="15" rx="7.5" fill="#24453A"/>
<rect x="238" y="19" width="32" height="15" rx="7.5" fill="#24453A"/>
<rect x="64" y="19" width="15" height="15" rx="7.5" fill="#24453A"/>
<rect x="114" y="19" width="15" height="15" rx="7.5" fill="#24453A"/>
<rect x="35" y="86" width="917" height="50" rx="20" fill="#D9D9D9" fill-opacity="0.08"/>
<rect x="35.5" y="86.5" width="916" height="49" rx="19.5" stroke="black" stroke-opacity="0.25"/>
<path d="M35 106C35 94.9543 43.9543 86 55 86H105V136H55C43.9543 136 35 127.046 35 116V106Z" fill="#FE8866"/>
<path d="M35.5 106C35.5 95.2304 44.2304 86.5 55 86.5H104.5V135.5H55C44.2304 135.5 35.5 126.77 35.5 116V106Z" stroke="black" stroke-opacity="0.25"/>
<rect x="54" y="104" width="32" height="15" rx="7.5" fill="#C6D4E4"/>
<rect x="179" y="104" width="32" height="15" rx="7.5" fill="#24453A"/>
<rect x="270" y="104" width="75" height="15" rx="7.5" fill="#24453A"/>
<rect x="450" y="104" width="75" height="15" rx="7.5" fill="#649383"/>
<rect x="888" y="104" width="30" height="15" rx="7.5" fill="#24453A"/>
<rect x="830" y="104" width="40" height="15" rx="7.5" fill="#24453A"/>
<rect x="35" y="170" width="159" height="238" rx="12" fill="#24453A"/>
<rect x="223" y="170" width="159" height="238" rx="12" fill="#24453A"/>
<rect x="411" y="170" width="159" height="238" rx="12" fill="#24453A"/>
<rect x="599" y="170" width="159" height="238" rx="12" fill="#24453A"/>
<rect x="792" y="170" width="159" height="238" rx="12" fill="#24453A"/>
<rect x="40" y="229" width="149" height="175" rx="12" fill="#D0D9D8"/>
<rect x="228" y="229" width="149" height="175" rx="12" fill="#D0D9D8"/>
<rect x="416" y="229" width="149" height="175" rx="12" fill="#D0D9D8"/>
<rect x="604" y="229" width="149" height="175" rx="12" fill="#D0D9D8"/>
<rect x="797" y="229" width="149" height="175" rx="12" fill="#D0D9D8"/>
<circle cx="59" cy="201" r="15" fill="#D9D9D9"/>
<circle cx="247" cy="201" r="15" fill="#D9D9D9"/>
<circle cx="435" cy="201" r="15" fill="#D9D9D9"/>
<circle cx="623" cy="201" r="15" fill="#D9D9D9"/>
<circle cx="816" cy="201" r="15" fill="#D9D9D9"/>
<rect x="83" y="196" width="70" height="10" rx="5" fill="#D9D9D9"/>
<rect x="271" y="196" width="70" height="10" rx="5" fill="#D9D9D9"/>
<rect x="459" y="196" width="70" height="10" rx="5" fill="#D9D9D9"/>
<rect x="647" y="196" width="70" height="10" rx="5" fill="#D9D9D9"/>
<rect x="840" y="196" width="70" height="10" rx="5" fill="#D9D9D9"/>
<rect x="59" y="249" width="108" height="8" rx="4" fill="#26374B" fill-opacity="0.56"/>
<rect x="247" y="249" width="108" height="8" rx="4" fill="#26374B" fill-opacity="0.56"/>
<rect x="435" y="249" width="108" height="8" rx="4" fill="#26374B" fill-opacity="0.56"/>
<rect x="623" y="249" width="108" height="8" rx="4" fill="#26374B" fill-opacity="0.56"/>
<rect x="816" y="249" width="108" height="8" rx="4" fill="#26374B" fill-opacity="0.56"/>
<rect x="59" y="262" width="85" height="8" rx="4" fill="#26374B" fill-opacity="0.56"/>
<rect x="247" y="262" width="85" height="8" rx="4" fill="#26374B" fill-opacity="0.56"/>
<rect x="435" y="262" width="85" height="8" rx="4" fill="#26374B" fill-opacity="0.56"/>
<rect x="623" y="262" width="85" height="8" rx="4" fill="#26374B" fill-opacity="0.56"/>
<rect x="816" y="262" width="85" height="8" rx="4" fill="#26374B" fill-opacity="0.56"/>
<rect x="55" y="380" width="117" height="11" rx="5.5" fill="#26374B" fill-opacity="0.56"/>
<rect x="243" y="380" width="117" height="11" rx="5.5" fill="#26374B" fill-opacity="0.56"/>
<rect x="431" y="380" width="117" height="11" rx="5.5" fill="#26374B" fill-opacity="0.56"/>
<rect x="619" y="380" width="117" height="11" rx="5.5" fill="#26374B" fill-opacity="0.56"/>
<rect x="812" y="380" width="117" height="11" rx="5.5" fill="#26374B" fill-opacity="0.56"/>
<rect x="35" y="603" width="159" height="238" rx="12" fill="#24453A"/>
<rect x="223" y="603" width="159" height="238" rx="12" fill="#24453A"/>
<rect x="411" y="603" width="159" height="238" rx="12" fill="#24453A"/>
<rect x="599" y="603" width="159" height="238" rx="12" fill="#24453A"/>
<rect x="792" y="603" width="159" height="238" rx="12" fill="#24453A"/>
<rect x="40" y="662" width="149" height="175" rx="12" fill="#D0D9D8"/>
<rect x="228" y="662" width="149" height="175" rx="12" fill="#D0D9D8"/>
<rect x="416" y="662" width="149" height="175" rx="12" fill="#D0D9D8"/>
<rect x="604" y="662" width="149" height="175" rx="12" fill="#D0D9D8"/>
<rect x="797" y="662" width="149" height="175" rx="12" fill="#D0D9D8"/>
<circle cx="59" cy="634" r="15" fill="#D9D9D9"/>
<circle cx="247" cy="634" r="15" fill="#D9D9D9"/>
<circle cx="435" cy="634" r="15" fill="#D9D9D9"/>
<circle cx="623" cy="634" r="15" fill="#D9D9D9"/>
<circle cx="816" cy="634" r="15" fill="#D9D9D9"/>
<rect x="83" y="629" width="70" height="10" rx="5" fill="#D9D9D9"/>
<rect x="271" y="629" width="70" height="10" rx="5" fill="#D9D9D9"/>
<rect x="459" y="629" width="70" height="10" rx="5" fill="#D9D9D9"/>
<rect x="647" y="629" width="70" height="10" rx="5" fill="#D9D9D9"/>
<rect x="840" y="629" width="70" height="10" rx="5" fill="#D9D9D9"/>
<rect x="59" y="682" width="108" height="8" rx="4" fill="#26374B" fill-opacity="0.56"/>
<rect x="247" y="682" width="108" height="8" rx="4" fill="#26374B" fill-opacity="0.56"/>
<rect x="435" y="682" width="108" height="8" rx="4" fill="#26374B" fill-opacity="0.56"/>
<rect x="623" y="682" width="108" height="8" rx="4" fill="#26374B" fill-opacity="0.56"/>
<rect x="816" y="682" width="108" height="8" rx="4" fill="#26374B" fill-opacity="0.56"/>
<rect x="59" y="695" width="85" height="8" rx="4" fill="#26374B" fill-opacity="0.56"/>
<rect x="247" y="695" width="85" height="8" rx="4" fill="#26374B" fill-opacity="0.56"/>
<rect x="435" y="695" width="85" height="8" rx="4" fill="#26374B" fill-opacity="0.56"/>
<rect x="623" y="695" width="85" height="8" rx="4" fill="#26374B" fill-opacity="0.56"/>
<rect x="816" y="695" width="85" height="8" rx="4" fill="#26374B" fill-opacity="0.56"/>
<rect x="55" y="813" width="117" height="11" rx="5.5" fill="#26374B" fill-opacity="0.56"/>
<rect x="243" y="813" width="117" height="11" rx="5.5" fill="#26374B" fill-opacity="0.56"/>
<rect x="431" y="813" width="117" height="11" rx="5.5" fill="#26374B" fill-opacity="0.56"/>
<rect x="619" y="813" width="117" height="11" rx="5.5" fill="#26374B" fill-opacity="0.56"/>
<rect x="812" y="813" width="117" height="11" rx="5.5" fill="#26374B" fill-opacity="0.56"/>
<rect x="41" y="418" width="149" height="175" rx="12" fill="#FBBE54"/>
<rect x="229" y="418" width="149" height="175" rx="12" fill="#62E9DA"/>
<rect x="417" y="418" width="149" height="175" rx="12" fill="#FE8767"/>
<rect x="605" y="418" width="149" height="175" rx="12" fill="#5FB3FC"/>
<rect x="798" y="418" width="149" height="175" rx="12" fill="#DB865A"/>
<rect x="60" y="438" width="108" height="8" rx="4" fill="#26374B" fill-opacity="0.56"/>
<rect x="248" y="438" width="108" height="8" rx="4" fill="#26374B" fill-opacity="0.56"/>
<rect x="436" y="438" width="108" height="8" rx="4" fill="#26374B" fill-opacity="0.56"/>
<rect x="624" y="438" width="108" height="8" rx="4" fill="#26374B" fill-opacity="0.56"/>
<rect x="817" y="438" width="108" height="8" rx="4" fill="#26374B" fill-opacity="0.56"/>
<rect x="60" y="451" width="85" height="8" rx="4" fill="#26374B" fill-opacity="0.56"/>
<rect x="248" y="451" width="85" height="8" rx="4" fill="#26374B" fill-opacity="0.56"/>
<rect x="436" y="451" width="85" height="8" rx="4" fill="#26374B" fill-opacity="0.56"/>
<rect x="624" y="451" width="85" height="8" rx="4" fill="#26374B" fill-opacity="0.56"/>
<rect x="817" y="451" width="85" height="8" rx="4" fill="#26374B" fill-opacity="0.56"/>
</svg>
