<svg width="1063" height="864" viewBox="0 0 1063 864" fill="none" xmlns="http://www.w3.org/2000/svg">
<path d="M0 20C0 8.9543 8.95431 0 20 0H1063V52H0V20Z" fill="#233831"/>
<rect x="20" y="19" width="32" height="15" rx="7.5" fill="#24453A"/>
<rect x="191" y="19" width="32" height="15" rx="7.5" fill="#24453A"/>
<rect x="479" y="19" width="56" height="15" rx="7.5" fill="#24453A"/>
<rect x="993" y="19" width="50" height="15" rx="7.5" fill="#24453A"/>
<rect x="943" y="19" width="33" height="15" rx="7.5" fill="#24453A"/>
<rect x="238" y="19" width="32" height="15" rx="7.5" fill="#24453A"/>
<rect x="64" y="19" width="15" height="15" rx="7.5" fill="#24453A"/>
<rect x="114" y="19" width="15" height="15" rx="7.5" fill="#24453A"/>
<path d="M0 52H1063V864H0V52Z" fill="white"/>
<rect x="405" y="92" width="610" height="33" rx="4" fill="#24453A"/>
<rect x="405" y="172" width="610" height="21" rx="4" fill="#36564B"/>
<rect x="405" y="232" width="610" height="43" rx="4" fill="#36564B"/>
<path d="M405 270H1015V377C1015 379.209 1013.21 381 1011 381H409C406.791 381 405 379.209 405 377V270Z" fill="#4D786A"/>
<rect x="48" y="463" width="967" height="43" rx="4" fill="#36564B"/>
<rect x="48" y="652" width="967" height="43" rx="4" fill="#36564B"/>
<path d="M48 502H1015V608C1015 610.209 1013.21 612 1011 612H52C49.7909 612 48 610.209 48 608V502Z" fill="#4D786A"/>
<path d="M48 690H1015V797C1015 799.209 1013.21 801 1011 801H52C49.7909 801 48 799.209 48 797V690Z" fill="#4D786A"/>
<rect x="48" y="83" width="272" height="298" rx="20" fill="#24453A"/>
<circle cx="184.5" cy="185.5" r="44.5" fill="#457263"/>
<path d="M112.188 322.832C108.875 322.857 106.144 320.186 106.377 316.881C107.665 298.565 115.448 281.228 128.434 268.056C142.831 253.453 162.442 245.164 182.954 245.012C203.466 244.859 223.199 252.856 237.811 267.243C250.992 280.221 259.032 297.44 260.593 315.735C260.874 319.036 258.184 321.747 254.87 321.772L183.529 322.302L112.188 322.832Z" fill="#457263"/>
<line x1="358.5" y1="381" x2="358.5" y2="92" stroke="black" stroke-opacity="0.06"/>
</svg>
