<svg width="1200" height="650" viewBox="0 0 1200 650" fill="none" xmlns="http://www.w3.org/2000/svg">
<path d="M0 50H1200V630C1200 641.046 1191.05 650 1180 650H20C8.95429 650 0 641.046 0 630V50Z" fill="white"/>
<rect x="368" y="53" width="832" height="35" fill="#C8C8C8"/>
<path d="M255 468H1200V630C1200 641.046 1191.05 650 1180 650H255V468Z" fill="#C8C8C8"/>
<path d="M0 20C0 8.95431 8.95431 0 20 0H1180C1191.05 0 1200 8.95431 1200 20V53H0V20Z" fill="#233831"/>
<rect x="24" y="21" width="123" height="10" rx="5" fill="#24453A"/>
<rect x="277" y="21" width="55" height="10" rx="5" fill="#24453A"/>
<rect x="362" y="21" width="80" height="10" rx="5" fill="#24453A"/>
<rect x="472" y="21" width="80" height="10" rx="5" fill="#24453A"/>
<path d="M0 53H255V650H20C8.9543 650 0 641.046 0 630V53Z" fill="#D9D9D9"/>
<path d="M0 53H35V650H20C8.95431 650 0 641.046 0 630V53Z" fill="#C8C8C8"/>
<rect x="9" y="66" width="18" height="18" rx="6" fill="#233831" fill-opacity="0.5"/>
<rect x="9" y="101" width="18" height="18" rx="6" fill="#233831" fill-opacity="0.5"/>
<rect x="9" y="136" width="18" height="18" rx="6" fill="#233831" fill-opacity="0.5"/>
<rect x="50" y="80" width="190" height="8" rx="4" fill="#233831" fill-opacity="0.5"/>
<rect x="277" y="66" width="64" height="8" rx="4" fill="#233831" fill-opacity="0.5"/>
<rect x="317" y="156" width="330" height="8" rx="4" fill="#233831" fill-opacity="0.5"/>
<rect x="362" y="501" width="238" height="8" rx="4" fill="#233831" fill-opacity="0.5"/>
<rect x="377" y="520" width="223" height="8" rx="4" fill="#233831" fill-opacity="0.5"/>
<rect x="453" y="532" width="151" height="8" rx="4" fill="#233831" fill-opacity="0.5"/>
<rect x="377" y="532" width="65" height="8" rx="4" fill="#233831" fill-opacity="0.5"/>
<rect x="290" y="547" width="65" height="8" rx="4" fill="#233831" fill-opacity="0.5"/>
<rect x="290" y="520" width="80" height="8" rx="4" fill="#233831" fill-opacity="0.5"/>
<rect x="290" y="501" width="65" height="8" rx="4" fill="#233831" fill-opacity="0.5"/>
<rect x="362" y="547" width="190" height="8" rx="4" fill="#233831" fill-opacity="0.5"/>
<rect x="342" y="562" width="88" height="8" rx="4" fill="#233831" fill-opacity="0.5"/>
<rect x="290" y="562" width="44" height="8" rx="4" fill="#233831" fill-opacity="0.5"/>
<rect x="317" y="196" width="196" height="8" rx="4" fill="#233831" fill-opacity="0.5"/>
<rect x="317" y="308" width="85" height="8" rx="4" fill="#233831" fill-opacity="0.5"/>
<rect x="317" y="177" width="125" height="8" rx="4" fill="#233831" fill-opacity="0.5"/>
<rect x="449" y="177" width="248" height="8" rx="4" fill="#233831" fill-opacity="0.5"/>
<rect x="399" y="228" width="248" height="8" rx="4" fill="#233831" fill-opacity="0.5"/>
<rect x="402" y="240" width="150" height="8" rx="4" fill="#233831" fill-opacity="0.5"/>
<rect x="399" y="259" width="248" height="8" rx="4" fill="#233831" fill-opacity="0.5"/>
<rect x="392" y="66" width="64" height="8" rx="4" fill="#233831" fill-opacity="0.5"/>
<rect x="95" y="93" width="145" height="8" rx="4" fill="#233831" fill-opacity="0.5"/>
<rect x="95" y="106" width="145" height="8" rx="4" fill="#233831" fill-opacity="0.5"/>
<rect x="50" y="125" width="190" height="8" rx="4" fill="#233831" fill-opacity="0.5"/>
<rect x="99" y="138" width="141" height="8" rx="4" fill="#233831" fill-opacity="0.5"/>
<rect x="50" y="156" width="190" height="8" rx="4" fill="#233831" fill-opacity="0.5"/>
<rect x="99" y="169" width="141" height="8" rx="4" fill="#233831" fill-opacity="0.5"/>
<rect x="5" y="563" width="25" height="25" rx="10" fill="#233831" fill-opacity="0.5"/>
<rect x="5" y="603" width="25" height="25" rx="10" fill="#233831" fill-opacity="0.5"/>
<rect x="35" y="603" width="220" height="47" fill="#C8C8C8"/>
<rect x="44" y="613" width="201" height="6" rx="3" fill="#233831" fill-opacity="0.5"/>
<rect x="44" y="628" width="201" height="6" rx="3" fill="#233831" fill-opacity="0.5"/>
</svg>
