<svg width="975" height="864" viewBox="0 0 975 864" fill="none" xmlns="http://www.w3.org/2000/svg">
<path d="M0 52H975V864H0V52Z" fill="white"/>
<path d="M0 20C0 8.9543 8.95431 0 20 0H975V52H0V20Z" fill="#233831"/>
<rect x="20" y="19" width="32" height="15" rx="7.5" fill="#24453A"/>
<rect x="431" y="19" width="56" height="15" rx="7.5" fill="#24453A"/>
<rect x="322" y="19" width="56" height="15" rx="7.5" fill="#24453A"/>
<rect x="540" y="19" width="56" height="15" rx="7.5" fill="#24453A"/>
<rect x="911" y="19" width="45" height="15" rx="7.5" fill="#24453A"/>
<rect x="797" y="19" width="98" height="15" rx="7.5" fill="#24453A"/>
<rect x="52" y="100" width="56" height="15" rx="7.5" fill="#24453A"/>
<rect x="181" y="146" width="56" height="15" rx="7.5" fill="#24453A"/>
<rect x="266" y="146" width="96" height="15" rx="7.5" fill="#24453A"/>
<rect x="809.5" y="146.5" width="95" height="14" rx="7" stroke="#24453A"/>
<rect x="520.5" y="236.5" width="189" height="194" rx="5.5" fill="#24453A" stroke="#24453A"/>
<rect x="723" y="236" width="205" height="195" rx="6" fill="#44655A"/>
<rect x="138" y="100" width="170" height="15" rx="7.5" fill="#24453A"/>
<rect x="53" y="188" width="207" height="15" rx="7.5" fill="#24453A"/>
<rect x="53" y="236" width="435" height="195" rx="6" fill="#F1F1F1"/>
<path d="M53 766C53 762.686 55.6863 760 59 760H330C333.314 760 336 762.686 336 766V864H53V766Z" fill="#F1F1F1"/>
<path d="M349 766C349 762.686 351.686 760 355 760H626C629.314 760 632 762.686 632 766V864H349V766Z" fill="#F1F1F1"/>
<path d="M645 766C645 762.686 647.686 760 651 760H922C925.314 760 928 762.686 928 766V864H645V766Z" fill="#F1F1F1"/>
<rect x="55" y="577" width="283" height="164" rx="8" fill="#F1F1F1"/>
<rect x="351" y="577" width="283" height="164" rx="8" fill="#F1F1F1"/>
<rect x="647" y="577" width="283" height="164" rx="8" fill="#F1F1F1"/>
<rect x="88" y="474" width="72" height="15" rx="7.5" fill="#7E978F"/>
<rect x="53.5" y="464.5" width="141" height="34" rx="5.5" stroke="#24453A"/>
<rect x="209.5" y="464.5" width="129" height="34" rx="5.5" fill="#24453A" stroke="#24453A"/>
<rect x="237" y="474" width="72" height="15" rx="7.5" fill="#2E5145"/>
<rect x="53.5" y="132.5" width="879" height="41" rx="5.5" stroke="#233831"/>
<rect x="53.5" y="132.5" width="73" height="41" rx="5.5" fill="#24453A" stroke="#233831"/>
<rect x="68" y="148" width="40" height="10" rx="5" fill="#2E5145"/>
</svg>
