<svg width="1200" height="650" viewBox="0 0 1200 650" fill="none" xmlns="http://www.w3.org/2000/svg">
<path d="M0 50H1200V630C1200 641.046 1191.05 650 1180 650H20C8.95429 650 0 641.046 0 630V50Z" fill="white"/>
<path d="M0 20C0 8.95431 8.95431 0 20 0H1180C1191.05 0 1200 8.95431 1200 20V53H0V20Z" fill="#233831"/>
<rect x="24" y="21" width="123" height="10" rx="5" fill="#24453A"/>
<rect x="277" y="21" width="55" height="10" rx="5" fill="#24453A"/>
<rect x="362" y="21" width="80" height="10" rx="5" fill="#24453A"/>
<rect x="472" y="21" width="80" height="10" rx="5" fill="#24453A"/>
<path d="M0 53H234V650H20C8.9543 650 0 641.046 0 630V53Z" fill="#D9D9D9"/>
<rect x="11" y="71" width="95" height="95" rx="10" fill="#24453A"/>
<g clip-path="url(#clip0_0_1)">
<path d="M99.1805 108.19C100.54 107.95 101.855 108.86 101.905 110.24C101.959 111.765 101.821 113.293 101.49 114.789C100.977 117.101 100.014 119.289 98.656 121.228C97.298 123.168 95.571 124.821 93.574 126.093C91.5775 127.365 89.3495 128.232 87.0175 128.643C84.686 129.054 82.296 129.002 79.9845 128.489C77.673 127.977 75.485 127.014 73.5455 125.656C71.606 124.298 69.9525 122.571 68.6805 120.574C67.8575 119.282 67.204 117.893 66.734 116.442C66.3085 115.128 67.233 113.823 68.593 113.583L83.887 110.887L99.1805 108.19Z" fill="white"/>
<path d="M48.6807 113.583C50.0404 113.823 50.965 115.128 50.5396 116.442C50.0696 117.893 49.4163 119.282 48.593 120.574C47.3208 122.571 45.6678 124.298 43.7283 125.656C41.7888 127.014 39.6008 127.977 37.2892 128.489C34.9776 129.002 32.5877 129.054 30.2559 128.643C27.9242 128.232 25.6963 127.365 23.6994 126.093C21.7025 124.821 19.9757 123.168 18.6176 121.228C17.2595 119.289 16.2968 117.101 15.7843 114.789C15.4527 113.293 15.3138 111.765 15.3685 110.24C15.4181 108.86 16.7331 107.95 18.0929 108.19L33.3868 110.887L48.6807 113.583Z" fill="white"/>
</g>
<rect x="15" y="185" width="190" height="15" rx="7.5" fill="#233831" fill-opacity="0.5"/>
<rect x="983" y="64" width="190" height="15" rx="7.5" fill="#233831" fill-opacity="0.5"/>
<rect x="377" y="129" width="190" height="237" rx="20" fill="#233831" fill-opacity="0.5"/>
<rect x="903" y="64" width="50" height="15" rx="7.5" fill="#233831" fill-opacity="0.5"/>
<rect x="15" y="283" width="75" height="8" rx="4" fill="#233831" fill-opacity="0.5"/>
<rect x="15" y="320" width="157" height="8" rx="4" fill="#233831" fill-opacity="0.5"/>
<rect x="15" y="346" width="157" height="8" rx="4" fill="#233831" fill-opacity="0.5"/>
<rect x="15" y="372" width="157" height="8" rx="4" fill="#233831" fill-opacity="0.5"/>
<rect x="15" y="398" width="157" height="8" rx="4" fill="#233831" fill-opacity="0.5"/>
<rect x="15" y="205" width="53" height="15" rx="7.5" fill="#233831" fill-opacity="0.5"/>
<rect x="397" y="324" width="150" height="30" rx="6" fill="#24453A"/>
<rect x="447" y="331" width="50" height="15" rx="7.5" fill="#233831"/>
<rect x="805" y="380" width="190" height="237" rx="20" fill="#233831" fill-opacity="0.5"/>
<path d="M805 650C805 639.507 813.507 631 824 631H976C986.493 631 995 639.507 995 650V650H805V650Z" fill="#233831" fill-opacity="0.5"/>
<path d="M591 650C591 639.507 599.507 631 610 631H762C772.493 631 781 639.507 781 650V650H591V650Z" fill="#233831" fill-opacity="0.5"/>
<path d="M377 650C377 639.507 385.507 631 396 631H548C558.493 631 567 639.507 567 650V650H377V650Z" fill="#233831" fill-opacity="0.5"/>
<rect x="825" y="575" width="150" height="30" rx="6" fill="#24453A"/>
<rect x="875" y="582" width="50" height="15" rx="7.5" fill="#233831"/>
<rect x="591" y="380" width="190" height="237" rx="20" fill="#233831" fill-opacity="0.5"/>
<rect x="611" y="575" width="150" height="30" rx="6" fill="#24453A"/>
<rect x="661" y="582" width="50" height="15" rx="7.5" fill="#233831"/>
<rect x="377" y="380" width="190" height="237" rx="20" fill="#233831" fill-opacity="0.5"/>
<rect x="397" y="575" width="150" height="30" rx="6" fill="#24453A"/>
<rect x="447" y="582" width="50" height="15" rx="7.5" fill="#233831"/>
<rect x="805" y="129" width="190" height="237" rx="20" fill="#233831" fill-opacity="0.5"/>
<rect x="825" y="324" width="150" height="30" rx="6" fill="#24453A"/>
<rect x="875" y="331" width="50" height="15" rx="7.5" fill="#233831"/>
<rect x="591" y="129" width="190" height="237" rx="20" fill="#233831" fill-opacity="0.5"/>
<rect x="611" y="324" width="150" height="30" rx="6" fill="#24453A"/>
<rect x="661" y="331" width="50" height="15" rx="7.5" fill="#233831"/>
<defs>
<clipPath id="clip0_0_1">
<rect width="87" height="21" fill="white" transform="translate(15 108)"/>
</clipPath>
</defs>
</svg>
