<svg width="1200" height="650" viewBox="0 0 1200 650" fill="none" xmlns="http://www.w3.org/2000/svg">
<path d="M0 50H1200V630C1200 641.046 1191.05 650 1180 650H20C8.95429 650 0 641.046 0 630V50Z" fill="white"/>
<path d="M0 20C0 8.95431 8.95431 0 20 0H1180C1191.05 0 1200 8.95431 1200 20V53H0V20Z" fill="#233831"/>
<rect x="24" y="21" width="123" height="10" rx="5" fill="#24453A"/>
<rect x="277" y="21" width="55" height="10" rx="5" fill="#24453A"/>
<rect x="362" y="21" width="80" height="10" rx="5" fill="#24453A"/>
<rect x="472" y="21" width="80" height="10" rx="5" fill="#24453A"/>
<path d="M783 53H1200V630C1200 641.046 1191.05 650 1180 650H783V53Z" fill="#F1F3F5"/>
<rect x="641" y="79" width="105" height="33" rx="2" fill="#2E2E2E"/>
<rect x="813" y="114" width="117" height="8" rx="4" fill="#2E2E2E" fill-opacity="0.5"/>
<rect x="932" y="114" width="73" height="8" rx="4" fill="#2E2E2E" fill-opacity="0.5"/>
<rect x="813" y="100" width="221" height="8" rx="4" fill="#2E2E2E" fill-opacity="0.5"/>
<rect x="521.5" y="79.5" width="104" height="32" rx="1.5" stroke="#2E2E2E"/>
<rect x="663" y="90" width="62" height="10" rx="5" fill="#4D4D4D"/>
<rect x="543" y="90" width="62" height="10" rx="5" fill="#1E1E1E"/>
<rect x="40" y="85" width="20" height="20" rx="10" fill="#D9D9D9"/>
<rect x="40.5" y="150.5" width="51" height="14" rx="7" stroke="#24453A"/>
<path d="M46.294 203L40.5469 182.636H44.5142L48.1832 197.601H48.3722L52.2898 182.636H55.8991L59.8267 197.611H60.0057L63.6747 182.636H67.642L61.8949 203H58.2557L54.179 188.712H54.0199L49.9332 203H46.294ZM75.2436 203.298C73.7124 203.298 72.3899 202.98 71.2763 202.344C70.1693 201.701 69.3175 200.793 68.7209 199.619C68.1243 198.439 67.826 197.051 67.826 195.453C67.826 193.882 68.1243 192.503 68.7209 191.317C69.3241 190.124 70.166 189.196 71.2464 188.533C72.3269 187.863 73.5964 187.528 75.0547 187.528C75.996 187.528 76.8842 187.681 77.7195 187.986C78.5613 188.284 79.3037 188.748 79.9467 189.378C80.5964 190.008 81.1068 190.81 81.478 191.784C81.8492 192.752 82.0348 193.905 82.0348 195.244V196.348H69.5163V193.922H78.5845C78.5779 193.232 78.4287 192.619 78.1371 192.082C77.8454 191.539 77.4377 191.111 76.9141 190.8C76.397 190.488 75.7938 190.332 75.1044 190.332C74.3686 190.332 73.7223 190.511 73.1655 190.869C72.6087 191.221 72.1745 191.685 71.8629 192.261C71.558 192.831 71.4022 193.458 71.3956 194.141V196.259C71.3956 197.147 71.558 197.909 71.8828 198.545C72.2076 199.175 72.6617 199.659 73.245 199.997C73.8284 200.329 74.5111 200.494 75.2933 200.494C75.817 200.494 76.291 200.421 76.7152 200.276C77.1394 200.123 77.5073 199.901 77.8189 199.609C78.1304 199.318 78.3658 198.956 78.5249 198.526L81.8857 198.903C81.6735 199.792 81.2692 200.567 80.6726 201.23C80.0826 201.886 79.3269 202.397 78.4055 202.761C77.4841 203.119 76.4302 203.298 75.2436 203.298ZM85.239 203V182.636H88.8384V190.253H88.9876C89.1732 189.882 89.435 189.487 89.7731 189.07C90.1112 188.645 90.5685 188.284 91.1452 187.986C91.7219 187.681 92.4577 187.528 93.3526 187.528C94.5326 187.528 95.5965 187.83 96.5444 188.433C97.4989 189.03 98.2546 189.915 98.8114 191.088C99.3749 192.255 99.6566 193.687 99.6566 195.384C99.6566 197.061 99.3815 198.486 98.8313 199.659C98.2811 200.832 97.5321 201.727 96.5842 202.344C95.6362 202.96 94.5624 203.268 93.3626 203.268C92.4876 203.268 91.7617 203.123 91.185 202.831C90.6083 202.539 90.1443 202.188 89.793 201.777C89.4483 201.359 89.1798 200.965 88.9876 200.594H88.7788V203H85.239ZM88.7688 195.364C88.7688 196.351 88.908 197.216 89.1864 197.959C89.4715 198.701 89.8791 199.281 90.4094 199.699C90.9464 200.11 91.596 200.315 92.3583 200.315C93.1538 200.315 93.82 200.103 94.3569 199.679C94.8938 199.248 95.2982 198.661 95.57 197.919C95.8484 197.17 95.9876 196.318 95.9876 195.364C95.9876 194.416 95.8517 193.574 95.5799 192.838C95.3081 192.102 94.9038 191.526 94.3668 191.108C93.8299 190.69 93.1604 190.482 92.3583 190.482C91.5894 190.482 90.9364 190.684 90.3995 191.088C89.8626 191.492 89.4549 192.059 89.1765 192.788C88.9047 193.518 88.7688 194.376 88.7688 195.364ZM120.888 188.234C120.795 187.366 120.404 186.69 119.714 186.206C119.032 185.722 118.143 185.48 117.05 185.48C116.281 185.48 115.621 185.596 115.071 185.828C114.521 186.06 114.1 186.375 113.808 186.773C113.517 187.17 113.367 187.625 113.361 188.135C113.361 188.559 113.457 188.927 113.649 189.239C113.848 189.55 114.116 189.815 114.455 190.034C114.793 190.246 115.167 190.425 115.578 190.571C115.989 190.717 116.403 190.839 116.821 190.939L118.73 191.416C119.499 191.595 120.238 191.837 120.947 192.142C121.663 192.447 122.303 192.831 122.866 193.295C123.437 193.759 123.887 194.32 124.219 194.976C124.55 195.632 124.716 196.401 124.716 197.283C124.716 198.476 124.411 199.527 123.801 200.435C123.191 201.336 122.31 202.042 121.156 202.553C120.009 203.056 118.621 203.308 116.99 203.308C115.406 203.308 114.03 203.063 112.864 202.572C111.704 202.082 110.795 201.366 110.139 200.425C109.49 199.483 109.138 198.337 109.085 196.984H112.714C112.768 197.694 112.986 198.284 113.371 198.754C113.755 199.225 114.256 199.576 114.872 199.808C115.495 200.04 116.191 200.156 116.96 200.156C117.762 200.156 118.465 200.037 119.068 199.798C119.678 199.553 120.155 199.215 120.5 198.784C120.845 198.347 121.02 197.836 121.027 197.253C121.02 196.723 120.865 196.285 120.56 195.94C120.255 195.589 119.827 195.297 119.277 195.065C118.733 194.827 118.097 194.615 117.368 194.429L115.051 193.832C113.374 193.402 112.048 192.749 111.074 191.874C110.106 190.992 109.622 189.822 109.622 188.364C109.622 187.164 109.947 186.113 110.597 185.212C111.253 184.31 112.144 183.611 113.271 183.114C114.398 182.61 115.674 182.358 117.099 182.358C118.545 182.358 119.811 182.61 120.898 183.114C121.991 183.611 122.85 184.304 123.473 185.192C124.096 186.073 124.418 187.088 124.438 188.234H120.888ZM127.846 203V187.727H131.445V203H127.846ZM129.655 185.56C129.085 185.56 128.595 185.371 128.184 184.993C127.773 184.608 127.567 184.148 127.567 183.611C127.567 183.067 127.773 182.607 128.184 182.229C128.595 181.844 129.085 181.652 129.655 181.652C130.232 181.652 130.722 181.844 131.127 182.229C131.538 182.607 131.743 183.067 131.743 183.611C131.743 184.148 131.538 184.608 131.127 184.993C130.722 185.371 130.232 185.56 129.655 185.56ZM142.773 187.727V190.511H133.993V187.727H142.773ZM136.161 184.068H139.76V198.406C139.76 198.89 139.833 199.261 139.979 199.52C140.131 199.772 140.33 199.944 140.575 200.037C140.821 200.13 141.092 200.176 141.391 200.176C141.616 200.176 141.821 200.16 142.007 200.126C142.199 200.093 142.345 200.063 142.445 200.037L143.051 202.851C142.859 202.917 142.584 202.99 142.226 203.07C141.875 203.149 141.444 203.196 140.933 203.209C140.032 203.235 139.22 203.099 138.497 202.801C137.775 202.496 137.201 202.026 136.777 201.389C136.359 200.753 136.154 199.957 136.161 199.003V184.068ZM152.38 203.298C150.849 203.298 149.527 202.98 148.413 202.344C147.306 201.701 146.454 200.793 145.858 199.619C145.261 198.439 144.963 197.051 144.963 195.453C144.963 193.882 145.261 192.503 145.858 191.317C146.461 190.124 147.303 189.196 148.383 188.533C149.464 187.863 150.733 187.528 152.191 187.528C153.133 187.528 154.021 187.681 154.856 187.986C155.698 188.284 156.44 188.748 157.083 189.378C157.733 190.008 158.243 190.81 158.615 191.784C158.986 192.752 159.172 193.905 159.172 195.244V196.348H146.653V193.922H155.721C155.715 193.232 155.565 192.619 155.274 192.082C154.982 191.539 154.574 191.111 154.051 190.8C153.534 190.488 152.931 190.332 152.241 190.332C151.505 190.332 150.859 190.511 150.302 190.869C149.745 191.221 149.311 191.685 149 192.261C148.695 192.831 148.539 193.458 148.532 194.141V196.259C148.532 197.147 148.695 197.909 149.02 198.545C149.344 199.175 149.798 199.659 150.382 199.997C150.965 200.329 151.648 200.494 152.43 200.494C152.954 200.494 153.428 200.421 153.852 200.276C154.276 200.123 154.644 199.901 154.956 199.609C155.267 199.318 155.502 198.956 155.662 198.526L159.022 198.903C158.81 199.792 158.406 200.567 157.809 201.23C157.219 201.886 156.464 202.397 155.542 202.761C154.621 203.119 153.567 203.298 152.38 203.298ZM164.434 203.219C163.831 203.219 163.314 203.007 162.883 202.582C162.452 202.158 162.24 201.641 162.246 201.031C162.24 200.435 162.452 199.924 162.883 199.5C163.314 199.076 163.831 198.864 164.434 198.864C165.017 198.864 165.524 199.076 165.955 199.5C166.393 199.924 166.615 200.435 166.621 201.031C166.615 201.436 166.509 201.804 166.303 202.135C166.104 202.466 165.839 202.732 165.508 202.93C165.183 203.123 164.825 203.219 164.434 203.219Z" fill="#1E1E1E"/>
<path d="M56.3523 154.182L57.8665 158.761H57.9261L59.4375 154.182H60.5966L58.5455 160H57.2443L55.196 154.182H56.3523ZM61.3175 160V155.636H62.3459V160H61.3175ZM61.8345 155.017C61.6716 155.017 61.5315 154.963 61.4141 154.855C61.2966 154.745 61.2379 154.614 61.2379 154.46C61.2379 154.305 61.2966 154.173 61.4141 154.065C61.5315 153.955 61.6716 153.901 61.8345 153.901C61.9993 153.901 62.1394 153.955 62.255 154.065C62.3724 154.173 62.4311 154.305 62.4311 154.46C62.4311 154.614 62.3724 154.745 62.255 154.855C62.1394 154.963 61.9993 155.017 61.8345 155.017ZM65.3352 160.085C64.8977 160.085 64.5199 159.994 64.2017 159.812C63.8854 159.629 63.642 159.369 63.4716 159.034C63.3011 158.697 63.2159 158.3 63.2159 157.844C63.2159 157.395 63.3011 157.001 63.4716 156.662C63.6439 156.321 63.8845 156.056 64.1932 155.866C64.5019 155.675 64.8646 155.58 65.2812 155.58C65.5502 155.58 65.804 155.623 66.0426 155.71C66.2831 155.795 66.4953 155.928 66.679 156.108C66.8646 156.288 67.0104 156.517 67.1165 156.795C67.2225 157.072 67.2756 157.402 67.2756 157.784V158.099H63.6989V157.406H66.2898C66.2879 157.209 66.2453 157.034 66.1619 156.881C66.0786 156.725 65.9621 156.603 65.8125 156.514C65.6648 156.425 65.4924 156.381 65.2955 156.381C65.0852 156.381 64.9006 156.432 64.7415 156.534C64.5824 156.634 64.4583 156.767 64.3693 156.932C64.2822 157.095 64.2377 157.274 64.2358 157.469V158.074C64.2358 158.328 64.2822 158.545 64.375 158.727C64.4678 158.907 64.5975 159.045 64.7642 159.142C64.9309 159.237 65.1259 159.284 65.3494 159.284C65.4991 159.284 65.6345 159.263 65.7557 159.222C65.8769 159.178 65.982 159.115 66.071 159.031C66.16 158.948 66.2273 158.845 66.2727 158.722L67.233 158.83C67.1723 159.083 67.0568 159.305 66.8864 159.494C66.7178 159.682 66.5019 159.828 66.2386 159.932C65.9754 160.034 65.6742 160.085 65.3352 160.085ZM69.0227 160L67.7898 155.636H68.8381L69.6051 158.705H69.6449L70.429 155.636H71.4659L72.25 158.688H72.2926L73.0483 155.636H74.0994L72.8636 160H71.7926L70.9744 157.051H70.9148L70.0966 160H69.0227Z" fill="#24453A"/>
<rect x="40" y="235" width="700" height="8" rx="4" fill="#D9D9D9" fill-opacity="0.49"/>
<rect x="40" y="257" width="700" height="8" rx="4" fill="#D9D9D9" fill-opacity="0.49"/>
<rect x="40" y="279" width="700" height="8" rx="4" fill="#D9D9D9" fill-opacity="0.49"/>
<rect x="40" y="301" width="341" height="8" rx="4" fill="#D9D9D9" fill-opacity="0.49"/>
<rect x="40" y="354" width="331" height="157" rx="10" fill="#D9D9D9" fill-opacity="0.49"/>
<path d="M40 538C40 532.477 44.4772 528 50 528H361C366.523 528 371 532.477 371 538V650H40V538Z" fill="#D9D9D9" fill-opacity="0.49"/>
<path d="M386 538C386 532.477 390.477 528 396 528H707C712.523 528 717 532.477 717 538V650H386V538Z" fill="#D9D9D9" fill-opacity="0.49"/>
<rect x="386" y="354" width="331" height="157" rx="10" fill="#D9D9D9" fill-opacity="0.49"/>
<rect x="813" y="142" width="357" height="93" rx="5" fill="white"/>
<rect x="832" y="168" width="40" height="40" rx="12" fill="#24453A" fill-opacity="0.5"/>
<rect x="881" y="177" width="221" height="8" rx="4" fill="#2E2E2E" fill-opacity="0.5"/>
<rect x="881" y="195" width="92" height="8" rx="4" fill="#2E2E2E" fill-opacity="0.5"/>
<path d="M813 599C813 596.239 815.239 594 818 594H1165C1167.76 594 1170 596.239 1170 599V650H813V599Z" fill="white"/>
<rect x="881" y="629" width="81" height="8" rx="4" fill="#2E2E2E" fill-opacity="0.5"/>
<rect x="966" y="629" width="90" height="8" rx="4" fill="#2E2E2E" fill-opacity="0.5"/>
<path d="M881 650C881 648.343 882.343 647 884 647H997C998.657 647 1000 648.343 1000 650V650H881V650Z" fill="#2E2E2E" fill-opacity="0.5"/>
<rect x="813" y="481" width="357" height="93" rx="5" fill="white"/>
<rect x="881" y="516" width="98" height="8" rx="4" fill="#2E2E2E" fill-opacity="0.5"/>
<rect x="983" y="516" width="136" height="8" rx="4" fill="#2E2E2E" fill-opacity="0.5"/>
<rect x="881" y="534" width="53" height="8" rx="4" fill="#2E2E2E" fill-opacity="0.5"/>
<rect x="813" y="368" width="357" height="93" rx="5" fill="white"/>
<rect x="881" y="403" width="175" height="8" rx="4" fill="#2E2E2E" fill-opacity="0.5"/>
<rect x="1061" y="403" width="36" height="8" rx="4" fill="#2E2E2E" fill-opacity="0.5"/>
<rect x="881" y="421" width="71" height="8" rx="4" fill="#2E2E2E" fill-opacity="0.5"/>
<rect x="813" y="255" width="357" height="93" rx="5" fill="white"/>
<rect x="881" y="290" width="221" height="8" rx="4" fill="#2E2E2E" fill-opacity="0.5"/>
<rect x="881" y="308" width="92" height="8" rx="4" fill="#2E2E2E" fill-opacity="0.5"/>
<rect x="978" y="308" width="35" height="8" rx="4" fill="#2E2E2E" fill-opacity="0.5"/>
<rect x="832" y="282" width="40" height="40" rx="12" fill="#24453A" fill-opacity="0.5"/>
<rect x="832" y="395" width="40" height="40" rx="12" fill="#24453A" fill-opacity="0.5"/>
<rect x="832" y="507" width="40" height="40" rx="12" fill="#24453A" fill-opacity="0.5"/>
<path d="M832 632C832 625.373 837.373 620 844 620H860C866.627 620 872 625.373 872 632V650H832V632Z" fill="#24453A" fill-opacity="0.5"/>
</svg>
