<svg width="1200" height="650" viewBox="0 0 1200 650" fill="none" xmlns="http://www.w3.org/2000/svg">
<path d="M0 50H1200V630C1200 641.046 1191.05 650 1180 650H20C8.95429 650 0 641.046 0 630V50Z" fill="white"/>
<rect x="368" y="53" width="832" height="35" fill="#C8C8C8"/>
<rect y="53" width="255" height="35" fill="#C8C8C8"/>
<path d="M0 20C0 8.95431 8.95431 0 20 0H1180C1191.05 0 1200 8.95431 1200 20V53H0V20Z" fill="#233831"/>
<rect x="24" y="21" width="36" height="10" rx="5" fill="#24453A"/>
<rect x="71" y="21" width="36" height="10" rx="5" fill="#24453A"/>
<rect x="277" y="21" width="55" height="10" rx="5" fill="#24453A"/>
<rect x="24" y="65" width="30" height="10" rx="5" fill="#24453A"/>
<rect x="71" y="65" width="59" height="10" rx="5" fill="#24453A"/>
<rect x="362" y="21" width="80" height="10" rx="5" fill="#24453A"/>
<rect x="472" y="21" width="80" height="10" rx="5" fill="#24453A"/>
<rect x="277" y="66" width="64" height="8" rx="4" fill="#233831" fill-opacity="0.5"/>
<rect x="392" y="66" width="64" height="8" rx="4" fill="#233831" fill-opacity="0.5"/>
<rect x="776" y="132" width="359" height="324" rx="12" fill="#F0F0F0"/>
<rect x="54" y="132" width="650" height="125" rx="12" fill="#F0F0F0"/>
<rect x="83" y="162" width="64" height="64" rx="10" fill="#233831" fill-opacity="0.5"/>
<rect x="635" y="176" width="37" height="37" rx="10" fill="#EB5F78" fill-opacity="0.5"/>
<rect x="168" y="177" width="109" height="12" rx="6" fill="#233831" fill-opacity="0.5"/>
<rect x="822" y="182" width="127" height="12" rx="6" fill="#233831" fill-opacity="0.5"/>
<rect x="822" y="226" width="57" height="12" rx="6" fill="#233831" fill-opacity="0.5"/>
<rect x="886" y="226" width="93" height="12" rx="6" fill="#233831" fill-opacity="0.5"/>
<rect x="822" y="267" width="64" height="12" rx="6" fill="#233831" fill-opacity="0.5"/>
<rect x="892" y="267" width="78" height="12" rx="6" fill="#233831" fill-opacity="0.5"/>
<rect x="901" y="413" width="78" height="12" rx="6" fill="#233831" fill-opacity="0.5"/>
<rect x="807" y="397" width="283" height="44" rx="10" fill="#233831" fill-opacity="0.5"/>
<rect x="955" y="182" width="72" height="12" rx="6" fill="#233831" fill-opacity="0.5"/>
<rect x="284" y="177" width="48" height="12" rx="6" fill="#233831" fill-opacity="0.5"/>
<path d="M54 585C54 578.373 59.3726 573 66 573H692C698.627 573 704 578.373 704 585V650H54V585Z" fill="#F0F0F0"/>
<path d="M83 613C83 607.477 87.4772 603 93 603H137C142.523 603 147 607.477 147 613V650H83V613Z" fill="#233831" fill-opacity="0.5"/>
<path d="M635 627C635 621.477 639.477 617 645 617H662C667.523 617 672 621.477 672 627V650H635V627Z" fill="#EB5F78" fill-opacity="0.5"/>
<rect x="168" y="618" width="56" height="12" rx="6" fill="#233831" fill-opacity="0.5"/>
<rect x="235" y="618" width="97" height="12" rx="6" fill="#233831" fill-opacity="0.5"/>
<rect x="54" y="426" width="650" height="125" rx="12" fill="#F0F0F0"/>
<rect x="83" y="456" width="64" height="64" rx="10" fill="#233831" fill-opacity="0.5"/>
<rect x="635" y="470" width="37" height="37" rx="10" fill="#EB5F78" fill-opacity="0.5"/>
<rect x="168" y="471" width="45" height="12" rx="6" fill="#233831" fill-opacity="0.5"/>
<rect x="219" y="471" width="71" height="12" rx="6" fill="#233831" fill-opacity="0.5"/>
<rect x="54" y="279" width="650" height="125" rx="12" fill="#F0F0F0"/>
<rect x="83" y="309" width="64" height="64" rx="10" fill="#233831" fill-opacity="0.5"/>
<rect x="635" y="323" width="37" height="37" rx="10" fill="#EB5F78" fill-opacity="0.5"/>
<rect x="168" y="324" width="87" height="12" rx="6" fill="#233831" fill-opacity="0.5"/>
</svg>
